# xmcd
#
# Track frame offsets: 
#        150
#        21959
#        48784
#        74307
#        100736
#        127040
#        149334
#        178722
#        201530
#        225000
#        249315
#        268932
#        291202
#
# Disc length: 4229 seconds
#
# Revision: 0
# Processed by: cddbd v1.5.2PL0 Copyright (c) Steve Scherf et al.
# Submitted via: ExactAudioCopyFreeDBPlugin 1.0
#
DISCID=bd10830d
DTITLE=Rednex - Greatest Hits and Remixes (2 of 2)
DYEAR=2019
DGENRE=Techno
TTITLE0=Cotton Eye Joe (Madcow Mix)
TTITLE1=Wish You Were Here (Stampede Remix)
TTITLE2=Old Pop In An Oak (Original Extended Mix)
TTITLE3=The Spirit Of The Hawk (F.A.F.s ''Heap Bigg'' Remix)
TTITLE4=Hold Me For A While (The Midnight Sun Remix)
TTITLE5=Wild'N Free (Original Extended)
TTITLE6=Roling Home (Tretow's Treatment Long)
TTITLE7=Cotton Eye Joe (Armand's Dosey-Dee-Mix)
TTITLE8=The Way I Mate (Relly Remix)
TTITLE9=Old Pop In An Oak (Doug's Klub Mix)
TTITLE10=Manly Man (Hunted Boxx In Disquise Remix)
TTITLE11=Cotton Eye Joe (Industrial Boogie Oeban Remix)
TTITLE12=The Ultimate Rednex Mega Mix
EXTD=
EXTT0=
EXTT1=
EXTT2=
EXTT3=
EXTT4=
EXTT5=
EXTT6=
EXTT7=
EXTT8=
EXTT9=
EXTT10=
EXTT11=
EXTT12=
PLAYORDER=
